<svg height='100px' width='100px'  fill="#000000" xmlns="http://www.w3.org/2000/svg" xmlns:xlink="http://www.w3.org/1999/xlink" version="1.1" x="0px" y="0px" viewBox="0 0 100 100" enable-background="new 0 0 100 100" xml:space="preserve"><g display="none"><rect x="5" y="5" display="inline" fill="none" stroke="#000000" stroke-miterlimit="10" width="90" height="90"></rect></g><g><path fill="none" stroke="#000000" stroke-miterlimit="10" d="M204-6.101c0-7.389-13.911-11.375-27-11.375   c-0.628,0-1.259,0.012-1.889,0.03c-1.005,0.029-2.012,0.079-3.012,0.154c-0.289-5.649-1.918-10.827-4.479-15   c-2.593-3.38-5.531-5.943-8.716-7.513l0.711-1.252c0.213-0.373,0.591-0.506,0.873-0.506c0.174,0,0.34,0.044,0.494,0.132   l6.755,3.839h4.999c-0.161-0.692-0.331-1.375-0.51-2.049l-9.267-5.268c-0.753-0.428-1.607-0.654-2.472-0.654   c-1.797,0-3.464,0.969-4.35,2.529l-1.059,1.861c-1.155-0.262-2.333-0.402-3.535-0.402c-1.417,0-2.806,0.199-4.159,0.563   l-1.148-2.02c-0.888-1.563-2.554-2.531-4.351-2.531c-0.864,0-1.719,0.227-2.471,0.654l-8.76,4.979   c-0.207,0.768-0.401,1.547-0.586,2.338h4.568l6.755-3.84c0.153-0.087,0.319-0.131,0.493-0.131c0.282,0,0.66,0.133,0.873,0.506   l0.873,1.537c-3.518,1.877-6.724,4.973-9.474,9.045c-1.96,3.8-3.19,8.279-3.449,13.104c-0.905-0.051-1.815-0.082-2.723-0.095   c-0.33-0.006-0.659-0.01-0.987-0.01c-13.089,0-27,3.986-27,11.375c0,5.297,7.15,8.844,16.021,10.43   c-7.451,5.939-12.434,12.952-9.694,17.759c0.897,1.573,2.987,3.45,7.85,3.45h0.001c2.846,0,6.259-0.651,9.915-1.848   c0.375-0.122,0.754-0.254,1.134-0.388c0.117,0.729,0.243,1.452,0.377,2.167c0.255,1.362,0.541,2.695,0.855,4   c0.448,1.854,0.949,3.652,1.511,5.375c0.449,1.379,0.935,2.713,1.452,4c0.766,1.902,1.605,3.697,2.511,5.375   c0.766,1.424,1.584,2.755,2.442,4c4.671,6.775,10.617,10.791,17.171,10.791c6.555,0,12.5-4.016,17.173-10.791   c0.857-1.245,1.676-2.576,2.442-4c0.904-1.678,1.745-3.473,2.511-5.375c0.518-1.287,1.003-2.621,1.452-4   c0.562-1.723,1.063-3.521,1.51-5.375c0.314-1.305,0.602-2.638,0.856-4c0.142-0.766,0.276-1.539,0.4-2.321   c0.372,0.137,0.741,0.263,1.11,0.387c3.827,1.293,7.407,2.003,10.37,2.003c4.862,0,6.952-1.877,7.851-3.451   c2.729-4.789-2.209-11.768-9.617-17.694C196.646,2.841,204-0.729,204-6.101z"></path><path d="M92.646,34.891c-2.667-2.574-6.616-3.746-10.146-4.516c-4.669-1.019-9.509-1.317-14.275-1.05   c-0.222-4.142-1.278-7.987-2.961-11.25c-2.362-3.497-5.114-6.155-8.134-7.766l0.749-1.32c0.233-0.408,0.767-0.553,1.173-0.322   l5.801,3.297h3.922c-0.159-0.679-0.326-1.349-0.504-2.007l-7.52-4.274c-2.035-1.157-4.701-0.422-5.857,1.611l-0.986,1.734   c-1.044-0.28-3.904-0.542-3.924-0.542s-2.881,0.262-3.924,0.542L45.07,7.293c-1.154-2.033-3.822-2.769-5.855-1.611l-7.521,4.274   c-0.178,0.659-0.344,1.328-0.503,2.007h3.923l5.799-3.297c0.408-0.231,0.94-0.086,1.174,0.322l0.749,1.32   c-3.021,1.611-5.772,4.27-8.134,7.766c-1.683,3.263-2.739,7.108-2.961,11.25c-4.768-0.267-9.606,0.032-14.276,1.05   c-3.528,0.771-7.479,1.942-10.146,4.516c-2.133,2.056-2.605,5.061-0.701,7.452c2.439,3.063,11.838,5.492,12.511,5.612   c-2.226,1.774-4.343,3.743-6.085,6.002c-1.32,1.711-2.549,3.705-2.836,5.886c-0.213,1.604,0.23,3.235,1.389,4.393   c1.538,1.535,3.861,1.929,5.949,1.929c3.233-0.001,6.456-0.852,9.486-1.919c0.835,5.192,2.205,10.339,4.367,15.142   c1.992,4.421,4.704,8.719,8.506,11.801c3.102,2.515,6.83,3.682,10.017,3.711v0.005c0.021,0,0.04-0.003,0.062-0.003   c0.02,0,0.04,0.003,0.061,0.003v-0.005c3.186-0.029,6.914-1.196,10.016-3.711c3.803-3.082,6.515-7.38,8.508-11.801   c2.161-4.803,3.531-9.949,4.365-15.142c3.031,1.067,6.253,1.918,9.488,1.919c2.086,0,4.41-0.394,5.947-1.929   c1.159-1.157,1.603-2.788,1.39-4.393c-0.286-2.181-1.517-4.175-2.837-5.886c-1.741-2.259-3.858-4.228-6.084-6.002   c0.674-0.121,10.07-2.549,12.51-5.612C95.252,39.951,94.777,36.946,92.646,34.891z M37.226,20.687   c3.431-5.396,8.146-8.944,12.757-8.978c4.609,0.033,9.324,3.582,12.756,8.978c1.173,2.637,1.905,5.683,2.064,8.941   c-2.753,0.33-5.498,0.862-8.135,1.734c-2.397,0.795-4.896,1.885-6.686,3.728c-1.789-1.843-4.289-2.933-6.688-3.728   c-2.636-0.872-5.381-1.404-8.134-1.734C35.32,26.369,36.052,23.324,37.226,20.687z M48.434,50.007   c0.494-0.606,1.136-1.528,1.549-2.156c0.412,0.628,1.055,1.55,1.548,2.156H48.434z M54.771,53.441h0.029   c1.834,1.697,3.834,3.223,5.906,4.615H39.256c2.073-1.393,4.072-2.918,5.906-4.615h0.029H54.771z M16.387,43.802   c-1.921-0.491-3.83-1.281-5.495-2.419c-0.826-0.567-2.037-1.49-2.026-2.66c0.02-1.97,2.988-3.238,4.375-3.83   c3.721-1.59,7.826-2.211,11.817-2.422c4.976-0.263,10.093,0.104,14.906,1.501c2.128,0.615,4.358,1.424,6.135,2.834   c0.694,0.553,1.655,1.451,1.517,2.471c-0.149,1.08-1.218,1.883-2.031,2.414c-2.255,1.473-4.92,2.26-7.504,2.807   c-2.861,0.604-6.326,0.93-8.701,0.907C24.035,45.354,18.225,44.271,16.387,43.802z M17.545,62.729L17.545,62.729   c-1.268,0-3.706-0.123-3.939-1.782c-0.15-1.086,0.437-2.238,0.964-3.145c2.2-3.795,5.898-6.783,9.466-9.221   c4.158,0.333,8.357,0.218,12.485-0.392c3.883-0.574,7.965-1.516,11.335-3.608c-0.891,2.076-4.316,5.586-4.289,5.667   c-3.549,3.462-7.791,6.198-12.207,8.418C27.172,60.773,22.308,62.729,17.545,62.729z M49.982,91.47   c-3.728-0.023-7.662-2.165-10.688-5.831h21.374C57.643,89.305,53.709,91.446,49.982,91.47z M63.092,82.203H36.871   c-0.855-1.407-1.65-2.956-2.383-4.613h30.987C64.742,79.247,63.948,80.796,63.092,82.203z M66.838,74.154H33.126   c-0.522-1.471-0.993-3.014-1.411-4.614H68.25C67.832,71.141,67.359,72.684,66.838,74.154z M69.047,66.105h-38.13   c-0.211-1.038-0.403-2.096-0.569-3.172c1.014-0.441,2.036-0.92,3.059-1.443h33.15c1.023,0.523,2.045,1.002,3.059,1.443   C69.45,64.01,69.258,65.067,69.047,66.105z M85.395,57.803c0.525,0.906,1.113,2.059,0.963,3.145   c-0.232,1.659-2.671,1.782-3.938,1.782l0,0c-4.764,0-9.629-1.956-13.816-4.063c-4.416-2.22-8.657-4.956-12.205-8.418   c0.026-0.081-3.398-3.591-4.291-5.667c3.37,2.093,7.452,3.035,11.336,3.608c4.127,0.61,8.327,0.725,12.486,0.392   C79.496,51.02,83.194,54.008,85.395,57.803z M89.071,41.382c-1.664,1.138-3.573,1.929-5.493,2.419   c-1.84,0.47-7.648,1.552-12.994,1.604c-2.375,0.022-5.838-0.303-8.701-0.907c-2.584-0.547-5.248-1.334-7.504-2.807   c-0.813-0.531-1.881-1.334-2.031-2.414c-0.139-1.021,0.822-1.918,1.518-2.471c1.775-1.411,4.006-2.219,6.135-2.834   c4.814-1.397,9.93-1.764,14.906-1.501c3.99,0.211,8.097,0.832,11.817,2.422c1.387,0.592,4.354,1.86,4.374,3.83   C91.108,39.892,89.897,40.815,89.071,41.382z"></path></g></svg>